<svg width="24" height="24" viewBox="0 0 24 24" fill="none" xmlns="http://www.w3.org/2000/svg">
<g clip-path="url(#clip0_85_1167)">
<path d="M1.62814 6.39748C1.0281 9.31499 2.50562 12.8475 6.02313 16.905C6.35313 17.2875 6.71311 17.6475 7.09562 17.9775C10.5606 20.985 13.6506 22.5 16.2906 22.5C16.7406 22.5 17.1756 22.455 17.5956 22.3725C20.2956 21.81 21.7206 19.6125 22.3281 18.3525C22.5381 17.9175 22.5531 17.4075 22.3806 16.9575C22.2006 16.5075 21.8406 16.155 21.3831 15.9825L16.6656 14.1825C16.0581 13.95 15.3756 14.0775 14.8881 14.52L13.4856 15.795C13.4331 15.84 13.3431 15.855 13.2606 15.8175C12.1206 15.315 11.1456 14.43 10.4181 13.71C9.72061 13.02 8.7231 11.955 8.19063 10.7475C8.1606 10.68 8.14558 10.575 8.21311 10.5075L9.48061 9.11247C9.92313 8.625 10.0506 7.94247 9.81811 7.33497L8.0181 2.61748C7.84561 2.15999 7.49309 1.79996 7.04311 1.61997C6.59312 1.44748 6.08308 1.4625 5.64811 1.67247C4.38812 2.27997 2.19064 3.6975 1.62814 6.39748Z" fill="#01DB60"/>
<path d="M16.3175 7.68238C15.6832 7.04811 14.8892 6.59767 14.0217 6.3816C13.6229 6.28052 13.2131 6.52442 13.1124 6.92725C13.012 7.32862 13.2563 7.73584 13.6584 7.83619C14.2619 7.98706 14.8145 8.30054 15.2569 8.74292C15.6993 9.1853 16.0128 9.73828 16.1636 10.3418C16.2486 10.6831 16.5548 10.9102 16.8906 10.9102C16.951 10.9102 17.0122 10.9028 17.0729 10.8875C17.475 10.7871 17.7193 10.3806 17.619 9.97852C17.4022 9.11134 16.9525 8.31739 16.3175 7.68238Z" fill="#01DB60"/>
<path d="M20.1373 10.0964C20.1977 10.0964 20.2589 10.0891 20.32 10.0737C20.7217 9.9734 20.966 9.56617 20.8657 9.16481C20.5013 7.70729 19.7476 6.37575 18.6856 5.31373C17.6243 4.25245 16.2924 3.49879 14.8345 3.13404C14.4339 3.0337 14.0256 3.27687 13.9249 3.6797C13.8245 4.08107 14.0688 4.48829 14.4705 4.58863C15.6651 4.88746 16.7557 5.50489 17.6251 6.37428C18.4948 7.2444 19.1119 8.33497 19.4103 9.52809C19.4957 9.8694 19.8015 10.0964 20.1373 10.0964Z" fill="#01DB60"/>
</g>
<defs>
<clipPath id="clip0_85_1167">
<rect width="24" height="24" fill="white"/>
</clipPath>
</defs>
</svg>
