<svg width="24" height="24" viewBox="0 0 24 24" fill="none" xmlns="http://www.w3.org/2000/svg">
<path d="M11.999 2.20407C6.59684 2.20407 2.20312 6.59974 2.20312 12C2.20312 17.4022 6.59684 21.7959 11.999 21.7959C17.4012 21.7959 21.795 17.4022 21.795 12C21.795 6.59974 17.4012 2.20407 11.999 2.20407ZM17.3743 12.6705H11.999C11.6288 12.6705 11.3284 12.3692 11.3284 11.9999V5.23853C11.3284 4.86641 11.6298 4.56792 11.999 4.56792C12.3693 4.56792 12.6696 4.86641 12.6696 5.23853V11.3294H17.3744C17.7465 11.3294 18.045 11.6307 18.045 12C18.0459 12.3702 17.7464 12.6705 17.3743 12.6705Z" fill="#01DB60"/>
</svg>
