<svg width="20" height="20" viewBox="0 0 20 20" fill="none" xmlns="http://www.w3.org/2000/svg">
<path fill-rule="evenodd" clip-rule="evenodd" d="M10.0775 7.76371L3.59664 1.28283C2.99573 0.681925 2.03172 0.685258 1.43509 1.28189C0.834297 1.88269 0.838877 2.84628 1.43603 3.44344L7.9169 9.92431L1.43603 16.4052C0.835124 17.0061 0.838456 17.9701 1.43509 18.5667C2.03588 19.1675 2.99948 19.1629 3.59664 18.5658L10.0775 12.0849L16.5584 18.5658C17.1593 19.1667 18.1233 19.1634 18.7199 18.5667C19.3207 17.9659 19.3161 17.0023 18.719 16.4052L12.2381 9.92431L18.719 3.44344C19.3199 2.84253 19.3166 1.87853 18.7199 1.28189C18.1191 0.681098 17.1555 0.685679 16.5584 1.28283L10.0775 7.76371Z" fill="#141514"/>
</svg>
