<svg width="24" height="24" viewBox="0 0 24 24" fill="none" xmlns="http://www.w3.org/2000/svg">
<path fill-rule="evenodd" clip-rule="evenodd" d="M20.7254 6.74407C19.7163 6.53867 18.6195 6.38697 17.5873 6.39633C16.3745 6.40741 14.8592 6.88554 14.0914 7.86395C13.4207 8.71964 13.1931 10.0696 13.338 11.1358C13.3423 11.1665 13.3474 11.1963 13.3516 11.227L13.338 11.2841L13.3397 11.2858C12.9323 11.7486 12.565 12.2744 12.2744 12.8744C12.0485 12.0026 11.6965 11.2287 11.2644 10.5451C11.6752 9.34682 11.7281 7.74192 11.1553 6.59996C10.4965 5.28406 8.85242 4.3721 7.44973 4.07298C6.25569 3.81814 4.94915 3.73547 3.73038 3.73547C2.93607 3.72013 2.05907 3.67581 1.09082 3.75507C2.16214 4.52639 2.53457 5.60877 3.02293 6.77297C3.66894 8.31473 4.47691 9.76446 5.84489 10.7855C7.13865 11.7512 8.89769 11.8679 10.4293 11.5057C8.62507 7.5359 4.43369 5.81161 4.43369 5.81161C9.47915 7.73689 11.0507 10.8878 11.493 13.1403C11.4989 13.1864 11.5867 13.8247 11.5799 14.1128L11.5092 17.019C8.53818 17.1749 6.21323 18.5795 6.21323 20.2908H17.903C17.903 18.6008 15.6334 17.209 12.7144 17.0248L12.6445 14.1433V14.1425C12.6343 13.7053 12.7724 13.2374 12.7911 13.176C13.4303 11.5183 14.9081 9.60501 18.2234 8.34021C18.2234 8.34021 15.4732 9.47202 13.8419 12.0408C15.0538 12.6067 16.541 12.8121 17.7827 12.2274C19.0884 11.6121 20.0029 10.5476 20.7979 9.37907C21.3996 8.49782 21.8914 7.66344 22.909 7.20494C22.1207 6.97652 21.386 6.86594 20.7254 6.74407Z" fill="#141514"/>
</svg>
