<svg width="24" height="24" viewBox="0 0 24 24" fill="none" xmlns="http://www.w3.org/2000/svg">
<path fill-rule="evenodd" clip-rule="evenodd" d="M5.60776 21.5454C5.60776 20.3923 6.06629 19.2868 6.8802 18.4721C7.69582 17.6573 8.80122 17.1988 9.9535 17.1988H14.0462C15.1984 17.1988 16.3039 17.6565 17.1195 18.4721C17.9342 19.286 18.3919 20.3923 18.3919 21.5454C18.3919 21.6869 18.2777 21.802 18.1362 21.802L5.86349 21.8011C5.72286 21.8011 5.6078 21.6861 5.6078 21.5446L5.60776 21.5454ZM11.9998 9.69968C13.9285 9.69968 15.4942 11.2653 15.4942 13.1941C15.4942 15.1228 13.9286 16.6885 11.9998 16.6885C10.0703 16.6885 8.50543 15.1228 8.50543 13.1941C8.50543 11.2653 10.0711 9.69968 11.9998 9.69968ZM12.2274 2.3463L12.9075 3.7943L14.4246 4.02527C14.52 4.03891 14.5984 4.10538 14.6291 4.19658C14.6589 4.28692 14.6359 4.38834 14.5686 4.45652L13.464 5.58749L13.7265 7.18634C13.7419 7.28265 13.701 7.37981 13.6209 7.43605C13.5416 7.4923 13.4359 7.49912 13.3498 7.45139L11.9964 6.70395L10.6439 7.45139C10.5578 7.49827 10.4521 7.4923 10.3728 7.43605C10.2927 7.3798 10.2518 7.28265 10.2672 7.18634L10.5288 5.58749L9.42426 4.45652C9.35693 4.38834 9.33477 4.28692 9.3646 4.19658C9.39528 4.10624 9.47369 4.03891 9.56915 4.02527L11.0853 3.7943L11.7655 2.3463C11.8081 2.25681 11.8976 2.19885 11.9973 2.19885C12.097 2.19885 12.1865 2.25596 12.2291 2.3463H12.2274ZM18.3638 5.07444L19.0447 6.5216L20.5618 6.75256C20.6564 6.76705 20.7348 6.83268 20.7655 6.92472C20.7961 7.01506 20.7731 7.11563 20.7058 7.18381L19.6013 8.31478L19.862 9.91364C19.8774 10.0108 19.8373 10.108 19.7572 10.1642C19.6771 10.2204 19.5723 10.2264 19.4862 10.1787L18.1328 9.43209L16.7794 10.1787C16.6942 10.2256 16.5885 10.2204 16.5084 10.1642C16.4282 10.1079 16.3882 10.0108 16.4035 9.91364L16.6643 8.31478L15.5598 7.18381C15.4933 7.11563 15.4694 7.01506 15.5001 6.92472C15.5308 6.83353 15.6092 6.76705 15.7038 6.75256L17.2208 6.5216L17.901 5.07444C17.9436 4.98495 18.0339 4.927 18.1328 4.927C18.2316 4.927 18.322 4.9841 18.3646 5.07444H18.3638ZM6.09867 5.07444L6.77964 6.5216L8.29668 6.75256C8.39128 6.76705 8.46969 6.83268 8.50037 6.92472C8.53105 7.01506 8.50804 7.11563 8.44156 7.18381L7.33702 8.31478L7.59781 9.91364C7.61315 10.0108 7.57309 10.108 7.49298 10.1642C7.41286 10.2204 7.30803 10.2264 7.22195 10.1787L5.86855 9.43209L4.51515 10.1787C4.42992 10.2256 4.32424 10.2204 4.24412 10.1642C4.16401 10.1079 4.12395 10.0108 4.13929 9.91364L4.40008 8.31478L3.29554 7.18381C3.22906 7.11563 3.2052 7.01506 3.23588 6.92472C3.26656 6.83353 3.34497 6.76705 3.43957 6.75256L4.95746 6.5216L5.63758 5.07444C5.68019 4.98495 5.76968 4.927 5.86855 4.927C5.96741 4.927 6.0586 4.9841 6.10036 5.07444H6.09867Z" fill="#141514"/>
</svg>
