<svg width="24" height="24" viewBox="0 0 24 24" fill="none" xmlns="http://www.w3.org/2000/svg">
<path fill-rule="evenodd" clip-rule="evenodd" d="M9.0001 22.5H4.0001C3.7241 22.5 3.5001 22.276 3.5001 22V12.5H2.0001C1.7981 12.5 1.61559 12.378 1.53809 12.1915C1.46059 12.0045 1.5036 11.7895 1.6466 11.6465L11.6466 1.6465C11.8416 1.451 12.1586 1.451 12.3536 1.6465L22.3536 11.6465C22.4966 11.7895 22.5396 12.0045 22.4621 12.1915C22.3846 12.378 22.2021 12.5 22.0001 12.5H20.5001V22C20.5001 22.276 20.2761 22.5 20.0001 22.5H15.0001C14.8676 22.5 14.7401 22.4475 14.6466 22.3535C14.5526 22.26 14.5001 22.1325 14.5001 22C14.5001 22 14.5001 17.523 14.5001 16C14.5001 15.724 14.2761 15.5 14.0001 15.5C13.0421 15.5 10.9581 15.5 10.0001 15.5C9.7241 15.5 9.5001 15.724 9.5001 16C9.5001 17.523 9.5001 22 9.5001 22C9.5001 22.1325 9.4476 22.26 9.3536 22.3535C9.2601 22.4475 9.1326 22.5 9.0001 22.5Z" fill="#141514"/>
</svg>
