<svg width="24" height="24" viewBox="0 0 24 24" fill="none" xmlns="http://www.w3.org/2000/svg">
<path d="M7.99522 14.266C8.90868 15.4128 9.40267 16.3037 9.40267 17.721C9.40267 17.9974 9.6281 18.2229 9.90449 18.2229H13.6779C13.8112 18.2229 13.9386 18.1699 14.0317 18.0749C14.1268 17.9798 14.1797 17.8543 14.1797 17.721C14.1797 16.3087 14.6786 15.4099 15.5999 14.2515C16.3674 13.2831 16.6967 12.4128 16.6967 11.3464C16.6967 9.86352 16.0371 8.47579 14.8854 7.53965C13.7338 6.60363 12.2235 6.24197 10.7424 6.55071C8.46952 7.02508 6.8483 9.07737 6.89045 11.4306C6.90907 12.4696 7.24054 13.3143 7.99522 14.266Z" fill="#141514"/>
<path d="M11.4547 21.863H12.1271C12.4956 21.863 12.7946 21.5641 12.7946 21.1955V20.9848H12.9553C13.4895 20.9848 13.9237 20.5506 13.9237 20.0165V18.9775H9.6582V20.0165C9.6582 20.5506 10.0924 20.9848 10.6266 20.9848H10.7873V21.1955C10.7883 21.5651 11.0891 21.863 11.4547 21.863Z" fill="#141514"/>
<path d="M5.39365 11.4503C5.39365 11.1739 5.16823 10.9485 4.89184 10.9485H2.63365C2.35725 10.9485 2.13184 11.1739 2.13184 11.4503C2.13184 11.7267 2.35726 11.9521 2.63365 11.9521H4.89184C5.17019 11.9521 5.39365 11.7267 5.39365 11.4503Z" fill="#141514"/>
<path d="M20.6995 10.9485H18.4413C18.1649 10.9485 17.9395 11.1739 17.9395 11.4503C17.9395 11.7267 18.1649 11.9521 18.4413 11.9521H20.6995C20.9759 11.9521 21.2013 11.7267 21.2013 11.4503C21.2013 11.1749 20.9778 10.9485 20.6995 10.9485Z" fill="#141514"/>
<path d="M5.5988 18.1021L7.19443 16.5065C7.39045 16.3105 7.39045 15.992 7.19443 15.7969C6.99841 15.6009 6.67987 15.6009 6.48484 15.7969L4.8892 17.3926C4.69318 17.5886 4.69318 17.9071 4.8892 18.1021C4.98721 18.2002 5.11463 18.2501 5.24304 18.2501C5.37045 18.2501 5.50175 18.2002 5.5988 18.1021Z" fill="#141514"/>
<path d="M16.494 7.25026C16.6224 7.25026 16.7498 7.20028 16.8478 7.10227L18.4435 5.50664C18.6395 5.31061 18.6395 4.99207 18.4435 4.79704C18.2474 4.60102 17.9289 4.60102 17.7339 4.79704L16.1382 6.39267C15.9422 6.5887 15.9422 6.90724 16.1382 7.10227C16.2382 7.20028 16.3656 7.25026 16.494 7.25026Z" fill="#141514"/>
<path d="M16.8498 15.7961C16.6538 15.6 16.3352 15.6 16.1402 15.7961C15.9442 15.9921 15.9442 16.3106 16.1402 16.5057L17.7358 18.1013C17.8338 18.1993 17.9612 18.2493 18.0896 18.2493C18.218 18.2493 18.3454 18.1993 18.4435 18.1013C18.6395 17.9053 18.6395 17.5867 18.4435 17.3917L16.8498 15.7961Z" fill="#141514"/>
<path d="M6.48481 7.10227C6.58282 7.20028 6.71024 7.25026 6.83865 7.25026C6.96704 7.25026 7.09445 7.20028 7.19248 7.10227C7.3885 6.90625 7.3885 6.5877 7.19248 6.39267L5.59685 4.79704C5.40082 4.60102 5.08228 4.60102 4.88725 4.79704C4.69123 4.99306 4.69123 5.31161 4.88725 5.50664L6.48481 7.10227Z" fill="#141514"/>
<path d="M11.7919 5.30296C12.0683 5.30296 12.2937 5.07753 12.2937 4.80114V2.54296C12.2937 2.26655 12.0682 2.04114 11.7919 2.04114C11.5155 2.04114 11.29 2.26656 11.29 2.54296V4.80114C11.29 5.07754 11.5155 5.30296 11.7919 5.30296Z" fill="#141514"/>
</svg>
