<svg width="24" height="24" viewBox="0 0 24 24" fill="none" xmlns="http://www.w3.org/2000/svg">
<path d="M21.1696 7.84221C20.9198 7.673 20.6297 7.56018 20.3154 7.5199C20.2268 7.51184 20.1462 7.50378 20.0576 7.50378H4.91681C3.80482 7.50378 2.90234 8.40626 2.90234 9.51825V11.3393H22.072V9.51825C22.072 8.8172 21.7094 8.19676 21.1696 7.84221Z" fill="#141514"/>
<path d="M3.70813 12.8058H2.90234V17.3986C2.90234 18.5106 3.80482 19.4131 4.91681 19.4131H20.0576C21.1696 19.4131 22.072 18.5106 22.072 17.3986V12.8058H3.70813ZM17.3663 17.697C16.9472 17.697 16.6007 17.3505 16.6007 16.9315C16.6007 16.5044 16.9472 16.1659 17.3663 16.1659C17.7933 16.1659 18.1318 16.5044 18.1318 16.9315C18.1318 17.3505 17.7933 17.697 17.3663 17.697ZM19.5902 17.697C19.1632 17.697 18.8247 17.3505 18.8247 16.9315C18.8247 16.5044 19.1631 16.1659 19.5902 16.1659C20.0092 16.1659 20.3557 16.5044 20.3557 16.9315C20.3557 17.3505 20.0092 17.697 19.5902 17.697Z" fill="#141514"/>
<path d="M4.91709 6.69799H20.0579C20.1626 6.69799 20.2593 6.70605 20.356 6.7141C20.6138 6.74633 20.8475 6.80274 21.0651 6.88332L21.0006 6.31927C20.9442 5.81161 20.6944 5.34428 20.2915 5.02197C19.8886 4.69161 19.389 4.5385 18.8733 4.60296L3.66011 6.23872C2.59648 6.35153 1.82292 7.3104 1.93573 8.36599L2.09689 9.84863V9.51827C2.09689 7.96312 3.36178 6.69799 4.91709 6.69799Z" fill="#141514"/>
</svg>
