<svg width="10" height="7" viewBox="0 0 10 7" fill="none" xmlns="http://www.w3.org/2000/svg">
<path d="M1.24991 0.677813H8.74991C8.82585 0.678051 8.90028 0.698994 8.96519 0.738388C9.03011 0.777781 9.08306 0.834132 9.11833 0.901377C9.1536 0.968622 9.16987 1.04421 9.16537 1.12001C9.16088 1.19582 9.1358 1.26896 9.09283 1.33156L5.34283 6.74823C5.18741 6.97281 4.81325 6.97281 4.65741 6.74823L0.907414 1.33156C0.864007 1.26909 0.838553 1.19591 0.833816 1.11998C0.829079 1.04405 0.84524 0.968281 0.880544 0.900894C0.915849 0.833507 0.968945 0.777082 1.03407 0.737753C1.09919 0.698424 1.17384 0.677693 1.24991 0.677813Z" fill="#141514"/>
</svg>
